<svg xmlns="http://www.w3.org/2000/svg" viewBox="0 0 213.649 50"><title>Asset 2</title><path d="M8.845.281.269,8.856a.986.986,0,0,0,0,1.354L32.089,42.03a.957.957,0,0,0,.445.252l10.831,2.707a.957.957,0,0,0,1.171-1.116L42.281,32.589a.956.956,0,0,0-.262-.489L10.2.281A.957.957,0,0,0,8.845.281ZM8.281,15.288l7.109-7.109,1.58,1.58L9.86,16.868a.907.907,0,0,0-.09.135L8.145,15.378A.907.907,0,0,0,8.281,15.288ZM37.89,41.646l3.541-3.541.931,4.659Zm2.57-8.4.557,2.787a.931.931,0,0,0-.465.239l-4.513,4.513a.945.945,0,0,0-.215.341l-2.568-.642L11.079,18.311a.907.907,0,0,0,.135-.09l7.109-7.109ZM14.035,6.825,6.927,13.934a.907.907,0,0,0-.09.135L2.3,9.533,9.522,2.311Z"/><text transform="translate(52.182 40.314) scale(1.04 1.15)" style="font-size:30px;font-family:Centaur, Centaur">Da<tspan x="32.828" y="0" style="letter-spacing:-0.1298796872559457em">V</tspan><tspan x="50.508" y="0">an</tspan><tspan x="75.835" y="0" style="font-size:13px"> </tspan><tspan x="79.022" y="0">Mo</tspan><tspan x="119.35" y="0" style="fill:#c1272d">net</tspan></text><line x1="43.649" y1="44.739" x2="213.649" y2="44.739" style="fill:none;stroke:#000;stroke-miterlimit:10"/></svg>